<svg width="24" height="24" viewBox="0 0 24 24" fill="none" xmlns="http://www.w3.org/2000/svg">
<path d="M0 20.2842C0 14.7572 0 9.23029 0 3.70336C0.175 2.71663 0.5875 1.86105 1.325 1.16159C1.99375 0.518345 2.8 0.162373 3.70625 0C9.2375 0 14.7687 0 20.3 0C21.2875 0.168618 22.1437 0.587041 22.8438 1.32397C23.4813 1.99219 23.8438 2.79781 24 3.70336C24 9.23029 24 14.7572 24 20.2842C23.975 20.3841 23.9562 20.484 23.9312 20.5777C23.475 22.6198 21.7625 24 19.6688 24C14.525 24 9.375 24 4.23125 24C3.10625 24 2.14375 23.5878 1.33125 22.8259C0.5875 22.1327 0.175 21.2709 0 20.2842ZM12 22.5574C14.5375 22.5574 17.075 22.5636 19.6187 22.5574C21.3 22.5511 22.575 21.3021 22.575 19.6284C22.5813 14.5324 22.5813 9.43638 22.575 4.33411C22.575 2.6854 21.3062 1.42389 19.6562 1.42389C14.5562 1.41764 9.45625 1.41764 4.35 1.42389C2.7 1.42389 1.43125 2.69165 1.43125 4.33411C1.425 9.43638 1.41875 14.5449 1.43125 19.6472C1.43125 20.74 1.93125 21.5956 2.88125 22.1639C3.35625 22.445 3.88125 22.5511 4.43125 22.5511C6.95625 22.5574 9.475 22.5574 12 22.5574Z" fill="#0874BC"/>
<path d="M15.0127 6.70715C13.3127 6.70715 11.6065 6.7134 9.90649 6.70091C9.69399 6.70091 9.57524 6.76336 9.47524 6.9632C9.05649 7.76882 8.37524 8.19974 7.47523 8.19974C6.58148 8.19974 5.90649 7.76258 5.49399 6.96945C5.39399 6.7696 5.28148 6.69466 5.06273 6.70715C4.62523 6.71964 4.18773 6.7134 3.75023 6.70715C3.45023 6.70091 3.20648 6.56976 3.06898 6.28873C2.93773 6.03268 2.96898 5.78912 3.12523 5.55805C3.28148 5.32698 3.51898 5.23331 3.79398 5.23331C4.23773 5.23331 4.68148 5.22706 5.13148 5.23331C5.30648 5.23955 5.39398 5.17085 5.47523 5.02097C5.88773 4.19037 6.56898 3.74072 7.49399 3.74072C8.40649 3.74072 9.08774 4.19037 9.50024 5.00224C9.59399 5.18959 9.71274 5.23331 9.90649 5.23331C13.2877 5.22706 16.669 5.23331 20.0502 5.23331C20.2065 5.23331 20.3627 5.22706 20.5127 5.27702C20.8127 5.37694 21.0252 5.65173 21.0252 5.96398C21.0252 6.28248 20.8127 6.56976 20.5002 6.66344C20.3627 6.70715 20.2252 6.70715 20.0815 6.70715C18.3877 6.70715 16.7002 6.70715 15.0127 6.70715ZM8.24399 5.98272C8.25024 5.53932 7.92524 5.20832 7.48774 5.20832C7.04399 5.20832 6.71899 5.52683 6.71899 5.97023C6.71899 6.40114 7.04398 6.72589 7.46899 6.73213C7.91274 6.73838 8.23773 6.41988 8.24399 5.98272Z" fill="#0874BC"/>
<path d="M16.4999 18.7478C15.2999 18.7478 14.0937 18.7541 12.8937 18.7416C12.6937 18.7416 12.5874 18.804 12.4999 18.9851C12.0812 19.8032 11.3999 20.2404 10.4874 20.2404C9.5749 20.2342 8.8999 19.7845 8.4874 18.9664C8.40615 18.804 8.30615 18.7416 8.13115 18.7416C6.7249 18.7478 5.31865 18.7416 3.9124 18.7478C3.7624 18.7478 3.6124 18.7416 3.4749 18.6916C3.1874 18.5855 2.99365 18.3044 2.99365 18.0047C2.99365 17.7049 3.1999 17.4239 3.48115 17.3239C3.6249 17.274 3.76865 17.2677 3.91865 17.2677C5.30615 17.2677 6.6999 17.2615 8.0874 17.274C8.29365 17.274 8.3999 17.2053 8.4999 17.0179C8.91865 16.2123 9.59365 15.7751 10.4999 15.7751C11.3937 15.7751 12.0687 16.1998 12.4812 16.9992C12.5874 17.2053 12.7062 17.274 12.9312 17.274C15.2874 17.2677 17.6499 17.2677 20.0062 17.2677C20.1124 17.2677 20.2249 17.2615 20.3312 17.274C20.7312 17.3239 21.0187 17.6362 21.0124 18.0109C21.0062 18.3856 20.7187 18.6916 20.3187 18.7353C20.2249 18.7478 20.1312 18.7416 20.0374 18.7416C18.8562 18.7478 17.6812 18.7478 16.4999 18.7478ZM10.4999 17.249C10.0624 17.249 9.71865 17.58 9.71865 18.0109C9.71865 18.4418 10.0562 18.7728 10.4937 18.7728C10.9187 18.7728 11.2562 18.4418 11.2687 18.0234C11.2812 17.6112 10.9249 17.249 10.4999 17.249Z" fill="#0874BC"/>
<path d="M8.93729 11.2725C10.656 11.2725 12.3748 11.2663 14.0935 11.2788C14.2998 11.2788 14.4123 11.2225 14.5123 11.0289C14.9248 10.2108 15.5935 9.77368 16.5185 9.77368C17.4435 9.77368 18.1123 10.2171 18.5248 11.0289C18.6248 11.2225 18.7373 11.285 18.9373 11.2788C19.3748 11.2663 19.8123 11.2725 20.2498 11.2788C20.6935 11.285 21.0123 11.5848 21.006 11.9969C21.006 12.4091 20.6873 12.7089 20.2435 12.7151C19.8123 12.7214 19.381 12.7276 18.956 12.7089C18.731 12.7026 18.6123 12.7713 18.506 12.9774C18.0873 13.7768 17.4248 14.214 16.506 14.214C15.5935 14.214 14.9248 13.7768 14.5123 12.9774C14.406 12.7651 14.281 12.7089 14.0623 12.7089C10.6748 12.7151 7.28104 12.7151 3.89354 12.7151C3.31854 12.7151 2.98729 12.4591 2.98104 12.0032C2.97479 11.541 3.31229 11.2725 3.89354 11.2725C5.58104 11.2725 7.26229 11.2725 8.93729 11.2725ZM15.756 11.9907C15.756 12.4279 16.0998 12.7713 16.5248 12.7651C16.9373 12.7588 17.281 12.4154 17.281 11.9969C17.2873 11.566 16.9435 11.2101 16.5185 11.2101C16.0998 11.2101 15.756 11.5598 15.756 11.9907Z" fill="#0874BC"/>
</svg>
