<svg width="17" height="16" viewBox="0 0 17 16" fill="none" xmlns="http://www.w3.org/2000/svg">
<path d="M1.12194 8.43868C0.913842 8.64678 0.734124 8.83596 0.554406 9.01567C0.393606 9.17175 0.213888 9.18593 0.0861937 9.05824C-0.0415007 8.93054 -0.0273124 8.75083 0.128758 8.59003C0.474006 8.24005 0.819254 7.8948 1.16923 7.54955C1.35368 7.36511 1.50502 7.36511 1.68947 7.54955C2.03944 7.8948 2.38469 8.24005 2.72994 8.59003C2.89074 8.75083 2.90493 8.93054 2.7725 9.05824C2.64481 9.18593 2.46509 9.17175 2.30429 9.01567C2.13403 8.84541 1.9685 8.6657 1.78406 8.5049C1.74622 8.75083 1.79824 8.97784 1.83608 9.20485C2.3374 12.1607 4.71157 14.5207 7.6911 14.9747C10.0369 15.3295 12.0847 14.6673 13.7826 13.0168C14.9508 11.8817 15.6413 10.4771 15.8257 8.85014C16.0764 6.58948 15.4001 4.6315 13.8157 3.00931C12.6854 1.85533 11.2902 1.18375 9.67746 0.980388C9.40315 0.947282 9.12412 0.952011 8.84508 0.918905C8.62753 0.895258 8.50929 0.791211 8.51402 0.606763C8.51875 0.427045 8.64172 0.322998 8.86873 0.322998C10.6092 0.332457 12.1699 0.871611 13.5319 1.94992C15.1589 3.23632 16.1284 4.91054 16.4169 6.96783C16.975 11.0115 14.2082 14.8281 10.1977 15.5517C6.02635 16.3084 2.02999 13.5559 1.25436 9.39403C1.19761 9.09607 1.16923 8.78866 1.12194 8.43868Z" fill="#9A9EA6"/>
<path d="M9.10049 4.95305C9.10049 5.44491 9.10522 5.93204 9.10049 6.4239C9.10049 6.5374 9.14778 6.57524 9.23764 6.63199C9.52614 6.81644 9.72004 6.72185 9.89976 6.47592C9.9376 6.4239 9.98962 6.38133 10.0416 6.3435C10.1646 6.24891 10.3254 6.25837 10.4295 6.36242C10.543 6.47119 10.5572 6.64145 10.4531 6.76442C10.3491 6.88738 10.2356 6.99616 10.1173 7.10493C10.0416 7.17588 10.0275 7.23263 10.0748 7.33668C10.472 8.17378 10.1126 9.05346 9.24237 9.36087C9.1336 9.3987 9.09103 9.45073 9.10049 9.56423C9.10995 9.70612 9.10522 9.848 9.10049 9.98988C9.09103 10.1649 8.9728 10.2784 8.80254 10.2784C8.63701 10.2784 8.51877 10.1649 8.50931 9.98988C8.50458 9.84327 8.49985 9.69193 8.50931 9.54532C8.51404 9.446 8.45729 9.41289 8.38162 9.3656C8.09785 9.18115 7.91814 9.28993 7.70058 9.51221C6.86347 10.3777 6.00272 11.2243 5.1467 12.0756C5.09467 12.1276 5.04738 12.1796 4.99062 12.2174C4.8582 12.2978 4.72578 12.2884 4.617 12.1749C4.50822 12.0614 4.49876 11.9337 4.58389 11.8012C4.62173 11.7445 4.67848 11.6972 4.72578 11.6452C5.63383 10.7371 6.53715 9.82908 7.44992 8.92576C7.54924 8.82644 7.58235 8.75077 7.51141 8.60889C7.13778 7.84745 7.51141 6.92995 8.31068 6.65091C8.47148 6.59416 8.50931 6.51376 8.50931 6.35769C8.50458 5.40707 8.50458 4.45646 8.50458 3.50112C8.50458 3.29775 8.59917 3.17479 8.7647 3.1606C8.95861 3.14168 9.09576 3.26464 9.09576 3.4822C9.10522 3.97406 9.10049 4.46592 9.10049 4.95305ZM9.63964 8.00352C9.64437 7.55896 9.25656 7.16169 8.80727 7.16169C8.3627 7.16169 7.98435 7.53058 7.97016 7.97988C7.95597 8.42444 8.33905 8.81698 8.79308 8.83117C9.23764 8.84063 9.63492 8.45755 9.63964 8.00352Z" fill="#9A9EA6"/>
<path d="M2.4648 4.81132C2.44588 4.85861 2.43169 4.92483 2.40804 4.98158C2.19995 5.42615 2.03915 5.8849 1.92564 6.36257C1.902 6.47608 1.84997 6.57067 1.73647 6.62269C1.52364 6.72201 1.27771 6.55175 1.32028 6.31528C1.42905 5.72883 1.62769 5.16603 1.90673 4.63633C1.97294 4.50864 2.10063 4.46607 2.24251 4.50864C2.37967 4.54647 2.44588 4.65525 2.4648 4.81132Z" fill="#9A9EA6"/>
<path d="M7.09982 0.507486C7.29372 0.502757 7.42615 0.602075 7.45452 0.743957C7.4829 0.895299 7.41669 1.0088 7.27953 1.07975C7.23224 1.10339 7.18022 1.11285 7.12819 1.12704C6.68363 1.23582 6.25325 1.38243 5.84179 1.57161C5.81341 1.58579 5.78977 1.59525 5.76139 1.60944C5.56748 1.68511 5.39722 1.63309 5.32628 1.46756C5.25534 1.31149 5.32155 1.15069 5.50127 1.06083C5.85125 0.890569 6.21541 0.748687 6.59377 0.644639C6.77822 0.592616 6.96266 0.545322 7.09982 0.507486Z" fill="#9A9EA6"/>
<path d="M4.51275 2.23372C4.50329 2.33777 4.45599 2.41817 4.38032 2.47965C3.97832 2.80125 3.61889 3.16069 3.29256 3.56269C3.16486 3.72349 2.9946 3.7424 2.85745 3.63363C2.71084 3.52012 2.69192 3.34986 2.82434 3.1796C3.16959 2.73977 3.5574 2.35195 3.99724 2.00671C4.10129 1.92631 4.21479 1.8932 4.34249 1.95941C4.45126 2.02562 4.50329 2.11548 4.51275 2.23372Z" fill="#9A9EA6"/>
<path d="M3.43936 11.4134C3.25964 11.4087 3.16505 11.3378 3.11776 11.2101C3.07046 11.0729 3.11303 10.9547 3.2218 10.8837C3.39679 10.7655 3.58124 10.6614 3.77515 10.5669C3.90284 10.5054 4.03526 10.5385 4.12512 10.652C4.20552 10.7513 4.22917 10.879 4.14877 10.9783C3.95013 11.2101 3.67583 11.3141 3.43936 11.4134Z" fill="#9A9EA6"/>
<path d="M12.222 2.61194C12.2173 2.63559 12.2126 2.68288 12.1889 2.72545C12.0943 2.90044 11.9997 3.08016 11.891 3.24569C11.7917 3.3923 11.6261 3.42067 11.489 3.33554C11.3565 3.25514 11.3045 3.09907 11.3802 2.94773C11.4748 2.76328 11.5741 2.58357 11.6923 2.41331C11.768 2.30453 11.8862 2.25724 12.0187 2.30926C12.1511 2.35655 12.2173 2.44641 12.222 2.61194Z" fill="#9A9EA6"/>
<path d="M13.759 5.45453C13.4846 5.4498 13.3238 5.18495 13.4705 5.01469C13.6644 4.78768 13.9245 4.63161 14.2224 4.58904C14.4447 4.55594 14.6103 4.84443 14.4636 5.02415C14.2745 5.25116 13.9954 5.36467 13.759 5.45453Z" fill="#9A9EA6"/>
<path d="M13.7447 10.5386C13.7683 10.5433 13.8156 10.548 13.8582 10.5717C14.0332 10.6663 14.2129 10.7609 14.3784 10.8696C14.5203 10.9595 14.5487 11.1203 14.4777 11.2574C14.402 11.3946 14.246 11.4561 14.0994 11.3851C13.9102 11.2906 13.7257 11.1865 13.546 11.0683C13.4372 10.9973 13.3947 10.8744 13.442 10.7419C13.4845 10.6095 13.5791 10.5433 13.7447 10.5386Z" fill="#9A9EA6"/>
<path d="M6.26294 12.9412C6.25348 12.9696 6.24875 13.0216 6.22038 13.0689C6.13052 13.2344 6.04066 13.3999 5.93661 13.5607C5.84202 13.7074 5.67649 13.7452 5.53461 13.6648C5.40219 13.5891 5.34071 13.433 5.41165 13.2817C5.50151 13.0973 5.60555 12.9175 5.71906 12.7473C5.79473 12.629 5.91769 12.5817 6.05958 12.6338C6.19673 12.6811 6.26294 12.7757 6.26294 12.9412Z" fill="#9A9EA6"/>
<path d="M11.9192 13.7025C11.8246 13.693 11.73 13.6504 11.6732 13.5606C11.5739 13.395 11.4699 13.2295 11.3847 13.0545C11.3043 12.8937 11.3564 12.7377 11.4935 12.6525C11.6354 12.5721 11.7962 12.6005 11.8955 12.7518C12.0043 12.9174 12.1083 13.0924 12.1935 13.2721C12.2881 13.4802 12.1462 13.7025 11.9192 13.7025Z" fill="#9A9EA6"/>
<path d="M8.51387 2.02554C8.51387 1.92622 8.50914 1.8269 8.51387 1.72758C8.52805 1.56678 8.64629 1.45801 8.80709 1.45801C8.96789 1.45801 9.09086 1.56678 9.09558 1.72758C9.10504 1.93095 9.10504 2.13904 9.09558 2.34714C9.08613 2.50794 8.96316 2.61672 8.80236 2.61672C8.64156 2.61672 8.52332 2.50794 8.50914 2.34714C8.50441 2.23836 8.51387 2.13431 8.51387 2.02554Z" fill="#9A9EA6"/>
<path d="M14.7806 7.70083C14.8752 7.70083 14.9698 7.6961 15.0644 7.70083C15.2394 7.71029 15.3482 7.83326 15.3482 7.99879C15.3482 8.15959 15.2394 8.27782 15.0739 8.28728C14.8752 8.29674 14.6719 8.29674 14.4732 8.28728C14.2982 8.28255 14.1895 8.15486 14.1895 7.98933C14.1895 7.8238 14.303 7.71029 14.4827 7.70083C14.5773 7.6961 14.6766 7.70083 14.7806 7.70083Z" fill="#9A9EA6"/>
<path d="M9.10053 13.9531C9.10053 14.0572 9.10999 14.1659 9.10053 14.27C9.08634 14.4308 8.95865 14.5348 8.80258 14.5301C8.65124 14.5254 8.52827 14.4261 8.51881 14.27C8.50935 14.0572 8.50935 13.8443 8.51881 13.6362C8.52827 13.4754 8.65597 13.3714 8.81677 13.3761C8.96811 13.3809 9.08161 13.4802 9.10053 13.6362C9.10053 13.6457 9.10053 13.6599 9.10053 13.6694C9.10053 13.7639 9.10053 13.8585 9.10053 13.9531Z" fill="#9A9EA6"/>
</svg>
