<svg width="27" height="24" viewBox="0 0 27 24" fill="none" xmlns="http://www.w3.org/2000/svg">
<path d="M26.9998 11.7381C26.8875 11.9394 26.705 12.0113 26.4944 12.0113C25.343 12.0113 24.1987 12.0184 23.0474 12.0113C22.7034 12.0113 22.4998 11.8316 22.5139 11.5584C22.5209 11.2925 22.7175 11.1344 23.0474 11.1344C24.1847 11.1344 25.329 11.1344 26.4663 11.1272C26.6839 11.1272 26.8594 11.1991 26.9998 11.3572C26.9998 11.4866 26.9998 11.6088 26.9998 11.7381Z" fill="#9A9EA6"/>
<path d="M21.475 11.5513C21.475 14.1531 21.475 16.7622 21.475 19.3641C21.475 20.2913 21.0046 20.9741 20.2253 21.2184C19.2987 21.5059 18.3158 20.9525 18.0701 19.975C18.014 19.745 17.9016 19.5941 17.7402 19.4503C16.0553 17.9769 14.0966 17.0713 11.9414 16.5969C11.6746 16.5394 11.4079 16.4963 11.1411 16.4459C11.0077 16.4172 10.9024 16.4459 10.8603 16.6113C10.5795 17.7756 9.75109 18.3219 8.68401 18.5878C8.30491 18.6813 8.31193 18.6741 8.36107 19.0766C8.42426 19.6228 8.4734 20.1619 8.52254 20.7081C8.55062 21.0244 8.64189 21.1178 8.93674 21.1538C9.70897 21.2328 10.2846 21.8581 10.2565 22.5984C10.2285 23.3819 9.6177 23.9856 8.82441 23.9784C8.23471 23.9784 7.64501 24.0431 7.06232 23.9353C5.89696 23.7269 5.0826 22.7422 5.02644 21.5347C4.95624 20.1188 4.75967 18.7316 4.21209 17.4091C4.06466 17.0569 3.88916 16.7334 3.68557 16.4172C3.40476 15.9788 3.06778 15.6553 2.5553 15.4684C1.35484 15.0372 0.47028 14.2322 0.175428 12.9169C-0.105383 11.6591 -0.0983627 10.4156 0.547503 9.25844C1.0319 8.38875 1.82519 7.89281 2.72379 7.56937C3.67855 7.21719 4.67543 7.08062 5.68635 6.97281C7.08338 6.82187 8.49446 6.91531 9.89149 6.8075C12.8751 6.58469 15.5569 5.58562 17.8385 3.57312C17.9297 3.48687 18.0069 3.40781 18.035 3.27125C18.2526 2.31531 19.0179 1.7475 19.9445 1.84812C20.8221 1.94875 21.4679 2.71062 21.475 3.68094C21.482 5.3125 21.475 6.95125 21.475 8.58281C21.475 9.57469 21.475 10.5666 21.475 11.5513ZM17.9929 11.5944C17.9929 9.40937 17.9929 7.23156 17.9929 5.04656C17.9929 4.9675 17.9929 4.88125 17.9929 4.80219C17.9859 4.67281 17.9438 4.64406 17.8314 4.72312C17.6208 4.88125 17.4102 5.04656 17.1926 5.1975C14.8197 6.82187 12.2012 7.61969 9.36497 7.70594C9.14032 7.71312 9.05608 7.77062 9.0631 8.015C9.07714 8.4175 9.07012 8.82 9.07012 9.22969C9.07012 9.55313 8.90866 9.74719 8.66295 9.75438C8.41724 9.76156 8.24875 9.55312 8.24173 9.23688C8.23471 8.84156 8.22769 8.44625 8.24173 8.05094C8.24875 7.80656 8.15749 7.74906 7.93284 7.74906C7.10444 7.75625 6.28307 7.79219 5.4617 7.88562C4.50694 7.99344 3.56622 8.13719 2.67465 8.5325C1.82519 8.89906 1.19337 9.49563 0.97574 10.4659C0.835334 11.0984 0.821294 11.7309 0.919578 12.3634C0.996801 12.8881 1.17231 13.3697 1.52332 13.7722C2.00772 14.3328 2.63955 14.6347 3.32051 14.8359C4.82285 15.2744 6.37434 15.3534 7.92582 15.3894C8.16451 15.3966 8.24173 15.3247 8.24173 15.0731C8.22769 13.765 8.23471 12.4497 8.23471 11.1416C8.23471 11.0409 8.22769 10.9403 8.24875 10.8469C8.29789 10.6241 8.44532 10.5019 8.66295 10.5091C8.88058 10.5163 9.02098 10.6456 9.05608 10.8756C9.07012 10.9763 9.0631 11.0697 9.0631 11.1703C9.0631 12.4713 9.07012 13.7722 9.05608 15.0803C9.05608 15.3031 9.0982 15.4038 9.34391 15.4109C10.1021 15.4469 10.8673 15.5188 11.6185 15.6553C13.858 16.0722 15.9079 16.9275 17.7331 18.3291C17.7963 18.3794 17.8595 18.4944 17.9508 18.4441C18.035 18.4009 17.9929 18.2788 17.9929 18.1925C17.9929 15.9931 17.9929 13.7938 17.9929 11.5944ZM18.8564 11.5441C18.8564 14.11 18.8564 16.6831 18.8564 19.2491C18.8564 19.3569 18.8564 19.4647 18.8564 19.5725C18.8845 20.0038 19.1934 20.3559 19.5865 20.4063C20.0709 20.4638 20.4289 20.2409 20.5764 19.7953C20.6255 19.6444 20.6185 19.4934 20.6185 19.3425C20.6185 14.1531 20.6185 8.96375 20.6185 3.76719C20.6185 3.7025 20.6185 3.63781 20.6185 3.58031C20.6044 3.19937 20.3868 2.89031 20.0358 2.76094C19.6988 2.63156 19.3267 2.73219 19.081 3.0125C18.8985 3.22094 18.8564 3.46531 18.8564 3.73844C18.8564 6.34031 18.8564 8.94219 18.8564 11.5441ZM4.44376 16.0003C4.71755 16.4819 4.9422 16.9203 5.11771 17.3947C5.63019 18.7603 5.79867 20.1906 5.89696 21.6353C5.9461 22.3469 6.5007 23.0153 7.17465 23.08C7.76435 23.1375 8.36809 23.1088 8.96482 23.0944C9.21053 23.0872 9.38603 22.8572 9.40007 22.5984C9.41412 22.3325 9.24563 22.1025 8.9929 22.0522C8.90866 22.0378 8.81739 22.0234 8.73315 22.0091C8.11537 21.9013 7.73627 21.4844 7.67309 20.8519C7.63097 20.4063 7.6099 19.9534 7.55374 19.515C7.4344 18.4872 7.25187 17.4738 6.9149 16.4963C6.85171 16.3094 6.76045 16.2303 6.55686 16.2231C6.10756 16.2016 5.66529 16.1584 5.22301 16.1153C4.9773 16.0794 4.73861 16.0434 4.44376 16.0003ZM8.74719 16.2734C8.51552 16.2734 8.24875 16.2806 7.97496 16.2734C7.79243 16.2663 7.76435 16.3381 7.81349 16.4963C7.87668 16.6903 7.93986 16.8916 7.989 17.0856C8.19961 17.8978 8.22067 17.905 8.99992 17.5744C9.03502 17.56 9.0631 17.5456 9.0982 17.5313C9.49134 17.3372 9.80023 17.0641 9.96872 16.64C10.053 16.4388 10.0389 16.3309 9.78619 16.3022C9.45624 16.2734 9.11926 16.295 8.74719 16.2734Z" fill="#9A9EA6"/>
<path d="M26.1223 1.44563C26.1293 1.56782 26.0662 1.68282 25.9679 1.77626C25.1325 2.63157 24.2971 3.49407 23.4546 4.34938C23.244 4.56501 22.9983 4.57938 22.8228 4.39969C22.6333 4.21282 22.6403 3.96844 22.8649 3.73844C23.7003 2.87594 24.5357 2.02063 25.3782 1.16532C25.5186 1.02157 25.6801 0.942507 25.8766 1.03594C26.0311 1.11501 26.1223 1.23719 26.1223 1.44563Z" fill="#9A9EA6"/>
<path d="M23.1597 18.6166C23.258 18.6094 23.3633 18.6813 23.4546 18.7819C24.29 19.6372 25.1324 20.4925 25.9608 21.355C26.1644 21.5635 26.1714 21.8294 26.01 22.0019C25.8345 22.1816 25.5817 22.1816 25.3781 21.9731C24.5287 21.1106 23.6933 20.2481 22.8508 19.3856C22.7104 19.2419 22.6472 19.0694 22.7385 18.8681C22.8017 18.7028 22.9351 18.6238 23.1597 18.6166Z" fill="#9A9EA6"/>
</svg>
