<svg width="23" height="23" viewBox="0 0 23 23" fill="none" xmlns="http://www.w3.org/2000/svg">
<path d="M11.5174 23C10.8667 23 10.2112 23 9.56048 22.9953C9.342 22.9953 9.2165 22.8837 9.19326 22.6697C9.10494 21.8695 9.02592 21.1299 8.96084 20.4181C8.91436 19.925 8.68659 19.5807 8.28683 19.3946C8.13344 19.3248 7.97539 19.2876 7.81735 19.2876C7.55239 19.2876 7.29673 19.39 7.05502 19.5854C6.5623 19.9854 6.03703 20.4181 5.34443 20.9763C5.21428 21.0833 5.10272 21.1345 5.0144 21.1345C4.92143 21.1345 4.81452 21.074 4.69366 20.9484C3.82442 20.0785 2.93659 19.1899 2.0534 18.306C1.81169 18.0641 1.80704 17.9246 2.02551 17.6547L2.19285 17.45C2.58796 16.9616 2.99702 16.4591 3.40142 15.966C3.81513 15.4589 3.7454 15.0077 3.60595 14.7146C3.42002 14.3099 3.06674 14.0819 2.56007 14.0354C1.76521 13.9656 0.988935 13.8772 0.333518 13.8028C0.115046 13.7795 0.0081346 13.6539 0.00348626 13.4353C-0.00116209 12.1839 -0.00116209 10.8673 0.00348626 9.51354C0.00348626 9.28559 0.115046 9.15998 0.342815 9.13672C1.13303 9.04833 1.87212 8.9739 2.59726 8.90412C3.20619 8.84364 3.48974 8.49473 3.61525 8.21095C3.7454 7.92718 3.81513 7.48523 3.42002 7.00141C2.95518 6.43385 2.495 5.86164 2.03016 5.28943C1.80239 5.0103 1.80704 4.87074 2.05805 4.61953C2.95053 3.72167 3.83372 2.83777 4.67972 1.99574C4.80522 1.87013 4.91678 1.805 5.00975 1.805C5.09807 1.805 5.21428 1.86083 5.34908 1.97248L5.73954 2.28882C6.16254 2.62843 6.59483 2.98199 7.02248 3.33555C7.28279 3.54954 7.5431 3.65654 7.81735 3.65654C7.97074 3.65654 8.12414 3.62398 8.27289 3.5542C8.68659 3.36811 8.919 3.00525 8.96549 2.48421C9.01662 1.9027 9.0817 1.30723 9.14212 0.735019C9.16072 0.576848 9.17466 0.414024 9.19326 0.255852C9.20255 0.186071 9.22579 0.106985 9.33735 0.00463867H13.7114C13.8044 0.0976808 13.8555 0.209331 13.8695 0.362851C13.9067 0.767584 13.9485 1.17697 13.9903 1.5724C14.0229 1.88874 14.0601 2.20974 14.088 2.53073C14.1437 3.14481 14.4924 3.42394 14.7759 3.54954C14.9247 3.61933 15.0781 3.65189 15.2315 3.65189C15.4918 3.65189 15.7428 3.5542 15.9798 3.35881C16.5516 2.8936 17.1187 2.43304 17.6904 1.96783C17.8252 1.85618 17.9414 1.80035 18.0298 1.80035C18.1227 1.80035 18.2296 1.86548 18.3598 1.99109C19.2104 2.83777 20.0936 3.72167 20.9814 4.61488C21.2325 4.86609 21.2371 5.00565 21.0093 5.28478L20.7072 5.6616C20.2888 6.17798 19.8566 6.70832 19.4289 7.22471C19.1593 7.55035 19.2337 7.84344 19.3452 8.02952C19.3499 8.03883 19.3638 8.06209 19.3731 8.07604C19.494 8.82968 20.154 8.87621 20.4376 8.89947C21.1116 8.95064 21.7996 9.02507 22.4643 9.09951L22.706 9.12742C22.9152 9.15068 22.9895 9.23442 22.9895 9.45307C22.9895 10.7929 22.9895 12.1327 22.9895 13.4678C22.9895 13.7097 22.8826 13.7702 22.7199 13.7888C22.283 13.84 21.8321 13.8865 21.3998 13.933C21.2511 13.947 21.1023 13.961 20.9536 13.9796C20.8745 13.9889 20.7955 13.9935 20.7118 14.0028C20.6003 14.0121 20.4841 14.0214 20.3725 14.0354C19.9402 14.0866 19.6009 14.3285 19.4289 14.7146C19.2476 15.1193 19.308 15.5427 19.6009 15.9055C19.8705 16.2405 20.1447 16.5754 20.4144 16.9104C20.5538 17.0779 20.6886 17.25 20.8281 17.4175C20.8513 17.4454 20.8745 17.4733 20.8978 17.5012C20.9629 17.5803 21.0233 17.6501 21.0744 17.7245C21.2511 17.9711 21.1627 18.1106 21.0558 18.2176C20.1076 19.1806 19.1686 20.1203 18.2715 21.0042C18.146 21.1252 18.0576 21.1252 18.0298 21.1252C17.9414 21.1252 17.8345 21.0787 17.723 20.9856C17.0629 20.4506 16.519 20.0133 16.017 19.5947C15.7521 19.376 15.4918 19.2737 15.2222 19.2737C15.0734 19.2737 14.92 19.3062 14.7759 19.3714C14.3576 19.5574 14.1251 19.9157 14.0787 20.4367C14.0089 21.2275 13.9253 22.0044 13.8462 22.665C13.823 22.879 13.6975 22.986 13.4697 22.986C12.8236 23 12.1682 23 11.5174 23ZM7.80805 18.5526C8.70518 18.5526 9.49075 19.1946 9.63485 20.0506C9.72782 20.5995 9.7743 21.1671 9.81149 21.6509C9.85332 22.1998 10.2345 22.2789 10.4576 22.2789C10.4715 22.2789 10.4901 22.2789 10.5087 22.2789C10.6249 22.2743 10.7551 22.2743 10.9131 22.2743C11.0108 22.2743 11.1037 22.2743 11.2013 22.2743C11.299 22.2743 11.3966 22.2743 11.4942 22.2743C11.4942 22.2743 11.7313 22.2743 11.8382 22.2743C11.9451 22.2743 12.0473 22.2743 12.1542 22.2743C12.3123 22.2743 12.4703 22.2743 12.6284 22.2743H12.6377C12.9817 22.2743 13.2094 22.0649 13.228 21.7253C13.2373 21.5299 13.2559 21.3485 13.2791 21.1764C13.2977 21.0275 13.3117 20.874 13.3256 20.7298C13.3489 20.4506 13.3721 20.1855 13.4372 19.9389C13.651 19.1248 14.3901 18.5526 15.2361 18.5526C15.6126 18.5526 15.9798 18.6689 16.2913 18.8922C16.6631 19.1574 17.0211 19.4597 17.3743 19.7528C17.4441 19.8133 17.5184 19.8738 17.5882 19.9343C17.6346 19.9715 17.7787 20.0924 17.974 20.0924C18.1971 20.0924 18.3458 19.9389 18.397 19.8924C18.9129 19.3667 19.4382 18.841 19.9495 18.3386C20.2005 18.092 20.2145 17.7989 19.9914 17.5291C19.917 17.4407 19.8426 17.3523 19.7729 17.264C19.4847 16.9197 19.1825 16.5615 18.9269 16.194C18.5736 15.6915 18.5132 15.0402 18.7549 14.4541C19.0013 13.8679 19.5126 13.4539 20.1215 13.3515C20.5166 13.2864 20.935 13.2445 21.3394 13.2073C21.4788 13.1934 21.6183 13.1841 21.7531 13.1701C22.2551 13.1189 22.3295 12.784 22.3295 12.5886C22.3248 11.9326 22.3248 11.2395 22.3295 10.3416C22.3295 10.016 22.1296 9.79267 21.8042 9.76476C21.5207 9.73685 21.2371 9.70893 20.9582 9.67637C20.4794 9.62519 19.9867 9.57402 19.4986 9.53215C19.1732 9.50424 19.0663 9.36933 19.0013 9.16464C18.885 8.79712 18.7224 8.31795 18.4667 7.87135C18.3133 7.60153 18.3365 7.41079 18.5597 7.15027C18.8479 6.81532 19.1268 6.46641 19.401 6.12681C19.5916 5.88955 19.7915 5.64299 19.9914 5.40573C20.3028 5.03357 20.1029 4.74048 19.9588 4.59627C19.4614 4.1078 18.9455 3.59606 18.3877 3.02851C18.3412 2.98199 18.1971 2.83777 17.9786 2.83777C17.8066 2.83777 17.6765 2.92616 17.5975 2.99129C17.4905 3.07968 17.3883 3.16342 17.2814 3.25181C16.9467 3.53094 16.5981 3.82402 16.2401 4.07058C15.9473 4.27527 15.5987 4.38227 15.2407 4.38227C14.3436 4.38227 13.558 3.73563 13.4139 2.87499C13.3256 2.36326 13.2838 1.84687 13.2373 1.27466C13.2048 0.874583 12.9724 0.655934 12.5819 0.655934H12.5633C12.3123 0.660586 12.0427 0.660586 11.7034 0.660586C11.5221 0.660586 11.3408 0.660586 11.1595 0.660586C10.9782 0.660586 10.7923 0.660586 10.611 0.660586H10.5971C10.03 0.660586 9.86727 0.804801 9.81613 1.36305C9.80219 1.49796 9.79289 1.62357 9.7743 1.73987C9.75571 1.89805 9.74176 2.05157 9.72782 2.20509C9.70457 2.48421 9.68133 2.74938 9.61625 3.0006C9.39778 3.81006 8.6587 4.37762 7.822 4.37762C7.44083 4.37762 7.07361 4.25666 6.75753 4.03336C6.37171 3.75889 5.99985 3.44255 5.63728 3.14016L5.47923 3.00525C5.39556 2.93547 5.26076 2.84242 5.07947 2.84242C4.87495 2.84242 4.7355 2.95873 4.64718 3.05177C4.14981 3.5635 3.63384 4.07988 3.11323 4.58696C2.85292 4.84283 2.83433 5.13591 3.06674 5.41504C3.13647 5.49878 3.20619 5.58251 3.28057 5.6709C3.57806 6.02446 3.88485 6.39198 4.14516 6.7688C4.48449 7.26658 4.54027 7.91322 4.2939 8.49008C4.04289 9.07159 3.54087 9.48098 2.94124 9.57867C2.54613 9.6438 2.13243 9.68102 1.73732 9.71824C1.58857 9.73219 1.43518 9.74615 1.28643 9.76011C0.793704 9.81593 0.723979 10.1416 0.723979 10.3277C0.723979 11.0394 0.723979 11.7838 0.723979 12.6025C0.723979 12.9235 0.928506 13.1468 1.24459 13.1701C1.40729 13.1841 1.59787 13.198 1.7838 13.2213C1.92325 13.2399 2.06735 13.2492 2.20215 13.2585C2.49965 13.2817 2.77855 13.305 3.0435 13.3748C3.64314 13.5237 4.10797 13.947 4.32644 14.5332C4.54027 15.1147 4.4566 15.7381 4.09867 16.2405C3.84766 16.594 3.55482 16.9383 3.27592 17.2733C3.20154 17.3616 3.12717 17.45 3.0528 17.5384C2.83433 17.8036 2.84827 18.092 3.08534 18.3293C3.64314 18.8782 4.1591 19.3946 4.65183 19.9017C4.69831 19.9482 4.84241 20.0971 5.07018 20.0971C5.24681 20.0971 5.37697 20.004 5.46064 19.9389C5.5629 19.8552 5.66517 19.7668 5.76743 19.683C6.10211 19.3993 6.45074 19.1108 6.81331 18.8643C7.1108 18.6596 7.45013 18.5526 7.80805 18.5526Z" fill="#9A9EA6"/>
<path d="M11.5079 16.8034C10.0669 16.7987 8.72357 16.2451 7.72418 15.2403C6.72478 14.2354 6.18093 12.891 6.18558 11.4488C6.19022 10.0113 6.74338 8.66685 7.74277 7.6713C8.74216 6.67575 10.0809 6.1268 11.5172 6.1268C14.4736 6.1268 16.821 8.47611 16.8582 11.4721C16.8117 14.4634 14.4643 16.8034 11.5172 16.8034H11.5079ZM11.5172 6.87114C8.95134 6.87114 6.93396 8.8855 6.92931 11.4581C6.92466 12.6956 7.39879 13.8539 8.25874 14.7192C9.12333 15.5845 10.2808 16.0637 11.5172 16.0637C14.0831 16.0637 16.1005 14.054 16.1144 11.4907C16.1237 10.2532 15.6542 9.09484 14.7943 8.22955C13.9344 7.35961 12.7769 6.87579 11.5358 6.87114H11.5172Z" fill="#9A9EA6"/>
<path d="M10.9455 13.105C10.8804 13.105 10.7967 13.091 10.6898 12.984C10.5829 12.877 10.4806 12.7747 10.3737 12.6677C10.0158 12.3095 9.64394 11.9419 9.28602 11.5744C9.11867 11.4023 9.10938 11.2116 9.26277 11.0534C9.33715 10.979 9.42547 10.9371 9.51843 10.9371C9.61605 10.9371 9.71366 10.979 9.79733 11.0627C10.0948 11.3465 10.318 11.5698 10.5178 11.7838C10.6061 11.8815 10.7502 12.0117 10.9641 12.0117C11.1732 12.0117 11.3127 11.8908 11.4057 11.7977C11.9356 11.2581 12.4794 10.7138 13.0093 10.1881L13.2511 9.94619C13.3766 9.82059 13.4742 9.82059 13.5067 9.82059C13.5486 9.82059 13.5904 9.82989 13.6369 9.84385C13.7856 9.89502 13.86 9.98341 13.8879 10.1462C13.9065 10.2532 13.8786 10.337 13.7996 10.4161C12.9024 11.3186 11.9867 12.235 11.2104 13.0073C11.1454 13.0724 11.071 13.1003 10.9827 13.1003H10.9687L10.9455 13.105Z" fill="#9A9EA6"/>
</svg>
