<svg width="28" height="23" viewBox="0 0 28 23" fill="none" xmlns="http://www.w3.org/2000/svg">
<path d="M3.34612 22.9854C1.77876 22.9854 0.386371 21.8992 0.0437401 20.4121C0.0291601 20.361 0.01458 20.3173 0.00729002 20.2735C0.00729002 20.2663 0 20.259 0 20.2517V19.1071C0.2187 18.1959 0.656101 17.5106 1.34136 17.0076C1.91727 16.5848 2.52964 16.388 3.20032 16.388H14.7914C17.9772 16.388 21.1702 16.388 24.3559 16.388C26.091 16.388 27.5417 17.8314 27.5854 19.6102C27.6292 21.2431 26.3826 22.7157 24.7569 22.9636C24.6184 22.9854 24.4726 22.9854 24.3268 22.9854H23.3864C21.6732 22.9854 19.9674 22.9854 18.2542 22.9854C16.541 22.9854 14.8352 22.9854 13.122 22.9854C9.2 22.9854 6.18193 22.9927 3.3607 23H3.34612V22.9854ZM13.9677 22.1835C14.9227 22.1835 15.8704 22.1835 16.8254 22.1835C17.8532 22.1835 18.8739 22.1835 19.9017 22.1835C21.6368 22.1835 23.051 22.1835 24.3559 22.1762C25.1797 22.169 25.9452 21.7461 26.3971 21.0317C26.8564 20.31 26.9147 19.4206 26.5648 18.6552C26.1055 17.6637 25.2891 17.1607 24.1372 17.1607C21.6003 17.1607 18.8811 17.168 15.309 17.168H6.09445C5.81743 17.168 5.54041 17.168 5.26339 17.168C4.98637 17.168 4.70935 17.168 4.43233 17.168C3.93661 17.168 3.53566 17.168 3.16387 17.1753C2.43487 17.1899 1.7496 17.5325 1.28304 18.123C0.816482 18.7208 0.641521 19.4789 0.801902 20.2006C1.07163 21.4035 2.05578 22.1835 3.30238 22.1835C4.83328 22.1835 6.36418 22.1835 7.89509 22.1835C8.87924 22.1835 13.9677 22.1835 13.9677 22.1835Z" fill="#9A9EA6"/>
<path d="M13.7781 14.8279C13.5011 14.8279 13.2168 14.8279 12.9398 14.8279C12.3347 14.8206 11.9483 14.4561 11.8973 13.851C11.8827 13.6615 11.8608 13.4647 11.8463 13.2751C11.8244 13.071 11.8025 12.8596 11.7879 12.6555C11.7734 12.4513 11.6713 12.3055 11.4963 12.2181C11.4745 12.2108 11.4526 12.1962 11.4307 12.1889C11.387 12.167 11.336 12.1452 11.3141 12.1306C11.0881 11.9119 10.833 11.7952 10.5705 11.7952C10.3372 11.7952 10.0967 11.8754 9.82693 12.0504C9.69571 12.1379 9.54262 12.1962 9.38224 12.2618C9.33121 12.2837 9.28747 12.2983 9.23644 12.3201C9.08335 12.3857 8.93755 12.4149 8.79175 12.4149C8.47099 12.4149 8.19397 12.2472 8.01172 11.9483C7.68367 11.4016 7.36291 10.8403 7.06402 10.2716C6.83803 9.83423 6.94738 9.3458 7.35562 9.03233C7.63264 8.82092 7.96069 8.57306 8.28874 8.33978C8.50744 8.18669 8.59492 7.99715 8.55847 7.742C8.5366 7.55975 8.52931 7.41395 8.55118 7.29002C8.62408 6.88906 8.47828 6.59017 8.11378 6.37147C7.90237 6.24025 7.70554 6.08716 7.49413 5.91949C7.4431 5.88304 7.39207 5.8393 7.34833 5.80285C6.94738 5.48938 6.83074 5.00095 7.06402 4.55626C7.31917 4.06783 7.61806 3.53566 7.99714 2.89414C8.17939 2.58796 8.4637 2.413 8.79175 2.413C8.93026 2.413 9.07606 2.44216 9.21457 2.50777C9.58636 2.66815 9.94357 2.83582 10.2935 3.01078C10.3956 3.06181 10.4903 3.08368 10.5778 3.08368C10.7017 3.08368 10.8184 3.03994 10.9277 2.94517C10.9933 2.88685 11.0662 2.82853 11.1246 2.81395C11.7369 2.6317 11.8171 2.12139 11.8244 1.75689C11.8317 1.58922 11.8463 1.42155 11.8608 1.24659C11.8681 1.15911 11.8754 1.07163 11.8827 0.976862C11.9265 0.386371 12.3201 0.01458 12.9033 0.00729001C13.1949 0.00729001 13.4865 0 13.7781 0C14.0697 0 14.354 -5.43148e-10 14.6238 0.00729001C15.1778 0.01458 15.5569 0.364501 15.6225 0.911252C15.6735 1.34865 15.71 1.74231 15.7391 2.12139C15.7464 2.27448 15.7975 2.49319 16.0672 2.62441C16.2203 2.69731 16.3734 2.77021 16.4827 2.86498C16.6285 2.9962 16.7816 3.05452 16.942 3.05452C17.0732 3.05452 17.2117 3.01078 17.3721 2.9233C17.62 2.78479 17.8897 2.66815 18.1448 2.55151L18.2688 2.50048C18.4219 2.43487 18.575 2.39842 18.728 2.39842C19.0634 2.39842 19.3477 2.58067 19.5445 2.90872C19.7778 3.30967 20.0111 3.7252 20.2371 4.13344L20.4266 4.47607C20.5214 4.63645 20.5651 4.80412 20.5578 4.92076V4.93534C20.5578 5.31442 20.4339 5.56957 20.1788 5.7664C19.8507 6.01426 19.5227 6.26212 19.1946 6.4954C19.0124 6.62662 18.9322 6.787 18.954 7.0057C18.9759 7.28273 18.9759 7.51601 18.954 7.73471C18.9249 8.04089 19.0925 8.20127 19.2238 8.29604C19.5664 8.53661 19.8726 8.7626 20.1642 8.98859C20.5724 9.30935 20.6891 9.80507 20.4485 10.2571C20.1642 10.7892 19.858 11.336 19.5154 11.9119C19.3404 12.2035 19.0561 12.3712 18.728 12.3712C18.5895 12.3712 18.451 12.342 18.3198 12.2837C17.9334 12.116 17.5616 11.941 17.2117 11.7661C17.1169 11.7151 17.0295 11.6932 16.942 11.6932C16.8326 11.6932 16.7233 11.7296 16.6285 11.8098L16.5994 11.8317C16.5337 11.89 16.4608 11.9483 16.4025 11.9629C15.71 12.1743 15.7027 12.8086 15.6954 13.02C15.6954 13.1803 15.6735 13.348 15.6589 13.523C15.6517 13.6177 15.6371 13.7052 15.6298 13.8C15.586 14.4051 15.1924 14.7696 14.5873 14.7769C14.3249 14.8279 14.0551 14.8279 13.7781 14.8279ZM13.8146 14.026C14.0114 14.026 14.1864 14.026 14.354 14.0333C14.3686 14.0333 14.3759 14.0333 14.3905 14.0333C14.6092 14.0333 14.8716 13.9458 14.9008 13.523C14.9154 13.3334 14.9299 13.1439 14.9518 12.9544C14.9737 12.6919 14.9956 12.4222 15.0174 12.1597C15.032 11.8973 15.1341 11.7515 15.3601 11.664C15.7902 11.4964 16.1765 11.2704 16.4973 10.9861C16.6212 10.8767 16.7379 10.8257 16.8545 10.8257C16.942 10.8257 17.0295 10.8475 17.1315 10.8986C17.3721 11.0152 17.6127 11.1319 17.8459 11.2412C18.0355 11.3287 18.225 11.4162 18.4146 11.5109C18.502 11.5547 18.5749 11.5693 18.6478 11.5693C18.8009 11.5693 18.9249 11.4818 19.0124 11.3141C19.2165 10.9204 19.4279 10.5268 19.6466 10.1477C19.7414 9.98003 19.7997 9.73217 19.5081 9.52076C19.3112 9.38225 19.1144 9.22916 18.9249 9.08336C18.7353 8.94485 18.5458 8.79176 18.349 8.65325C18.1667 8.52203 18.1011 8.37623 18.1303 8.1794C18.2104 7.66181 18.2104 7.1515 18.1303 6.67036C18.0938 6.46624 18.1667 6.32044 18.3562 6.18193C18.677 5.95594 18.9978 5.71537 19.304 5.48209L19.5008 5.329C19.5081 5.32171 19.5154 5.31442 19.5299 5.30713C19.5956 5.26339 19.7195 5.17591 19.7486 4.99366L19.7559 4.92805L19.7268 4.86973C19.7195 4.85515 19.7122 4.84057 19.7049 4.82599C19.683 4.78225 19.6685 4.73851 19.6393 4.69477C19.5664 4.57084 19.5008 4.44691 19.4279 4.31569C19.2821 4.06054 19.129 3.79081 18.9905 3.52837C18.954 3.46276 18.852 3.26593 18.6187 3.26593C18.5458 3.26593 18.4656 3.2878 18.3708 3.33154C18.1667 3.4336 17.948 3.53566 17.7366 3.63772C17.5325 3.73249 17.3211 3.83455 17.1097 3.93661C17.0076 3.98764 16.9201 4.00951 16.8399 4.00951C16.7233 4.00951 16.6139 3.95848 16.4973 3.85642C16.1474 3.55753 15.761 3.32425 15.3382 3.16387C15.1195 3.08368 15.0247 2.94517 15.0028 2.68273C14.981 2.413 14.9518 2.13597 14.9227 1.87353C14.9008 1.65483 14.8716 1.43613 14.857 1.21014C14.8352 0.940412 14.6748 0.794612 14.4051 0.794612H14.2228C14.0624 0.794612 13.8948 0.801902 13.7344 0.801902C13.5448 0.801902 13.3845 0.794612 13.2314 0.787322C13.2095 0.787322 13.1949 0.787322 13.173 0.787322C12.8377 0.787322 12.6555 0.969572 12.6336 1.34136C12.6117 1.65483 12.5898 1.97559 12.5607 2.28177C12.5461 2.42758 12.5315 2.57338 12.5242 2.72647C12.5097 2.93788 12.4149 3.0691 12.2253 3.14929C11.7879 3.32425 11.3797 3.56482 11.0225 3.86371C10.9131 3.95848 10.8038 4.00222 10.6872 4.00222C10.607 4.00222 10.5195 3.98035 10.4247 3.92932C10.1987 3.81997 9.96544 3.71062 9.73945 3.60127C9.54262 3.5065 9.3385 3.41173 9.14167 3.31696C9.05419 3.27322 8.974 3.25135 8.9011 3.25135C8.74072 3.25135 8.61679 3.33883 8.52931 3.51379C8.33248 3.89287 8.12836 4.27924 7.90966 4.65832C7.76386 4.91347 7.8076 5.13217 8.05546 5.30713C8.27416 5.46751 8.49286 5.62789 8.70427 5.78827C8.87194 5.91949 9.0469 6.04342 9.21457 6.16735C9.38953 6.29128 9.45514 6.42979 9.42598 6.61933C9.34579 7.14422 9.34579 7.66181 9.42598 8.15753C9.45514 8.35436 9.38953 8.50016 9.18541 8.64596C8.99587 8.78447 8.79904 8.92298 8.61679 9.06149C8.42725 9.2 8.23042 9.3458 8.04088 9.48431C7.80031 9.65198 7.75657 9.86339 7.90237 10.1113C8.12836 10.4903 8.34706 10.8913 8.56576 11.2922C8.65324 11.4599 8.77717 11.5401 8.92297 11.5401C8.99587 11.5401 9.06877 11.5182 9.15625 11.4745C9.33121 11.387 9.51346 11.2995 9.68842 11.2193C9.9217 11.11 10.1623 11.0006 10.3883 10.8767C10.4976 10.8184 10.5997 10.7892 10.6872 10.7892C10.8111 10.7892 10.9277 10.8403 11.0517 10.9423C11.3943 11.2339 11.7734 11.4599 12.1889 11.6203C12.4149 11.7078 12.5169 11.8536 12.5388 12.1233C12.5607 12.3857 12.5898 12.6555 12.619 12.9106C12.6409 13.122 12.67 13.348 12.6846 13.5667C12.6992 13.7635 12.794 13.9895 13.1512 13.9895H13.1658C13.399 14.026 13.6032 14.026 13.8146 14.026Z" fill="#9A9EA6"/>
<path d="M3.26592 20.6599C2.75562 20.6526 2.29635 20.1933 2.28906 19.683C2.28906 19.4352 2.39112 19.1873 2.58066 18.9978C2.7702 18.8082 3.02535 18.6989 3.27321 18.6916C3.52108 18.6916 3.77623 18.8009 3.96577 18.9905C4.15531 19.18 4.26466 19.4279 4.25737 19.6757C4.25737 20.186 3.79081 20.6526 3.2805 20.6526L3.26592 20.6599Z" fill="#9A9EA6"/>
<path d="M10.2645 20.6599C9.73958 20.6453 9.29489 20.2006 9.2876 19.683C9.2876 19.4352 9.38966 19.1873 9.5792 18.9978C9.76874 18.8082 10.0166 18.6989 10.2717 18.6989C10.5196 18.6989 10.7748 18.8082 10.9643 18.9978C11.1538 19.1873 11.2559 19.4352 11.2559 19.683C11.2486 20.1933 10.7821 20.6599 10.279 20.6599H10.2645Z" fill="#9A9EA6"/>
<path d="M17.2629 20.6599C16.7526 20.6599 16.3006 20.2152 16.286 19.6976C16.2787 19.457 16.3735 19.2165 16.5558 19.0269C16.7453 18.8228 17.0005 18.7062 17.2556 18.6989H17.2775C17.7878 18.6989 18.2398 19.1509 18.247 19.6757C18.2543 19.9163 18.145 20.1642 17.9627 20.361C17.7732 20.5578 17.518 20.6672 17.2702 20.6745L17.2629 20.6599Z" fill="#9A9EA6"/>
<path d="M24.2609 20.6599C23.7506 20.6599 23.2987 20.2152 23.2841 19.6976C23.2768 19.457 23.3716 19.2165 23.5538 19.0269C23.7434 18.8228 23.9985 18.7062 24.2537 18.6989H24.2755C24.7858 18.6989 25.2378 19.1509 25.2451 19.6757C25.2524 19.9163 25.143 20.1642 24.9608 20.3537C24.7712 20.5505 24.5161 20.6599 24.2682 20.6672L24.2609 20.6599Z" fill="#9A9EA6"/>
<path d="M13.7709 10.1623C12.291 10.1623 11.0444 8.90839 11.0371 7.42852C11.0371 6.72867 11.3287 6.02883 11.8463 5.50395C12.3639 4.98636 13.0564 4.68747 13.7563 4.68747H13.7854C15.2726 4.70205 16.5192 5.95593 16.5119 7.42852C16.4973 8.91568 15.2434 10.1623 13.7709 10.1623ZM13.7563 5.48208C12.7138 5.48208 11.8317 6.37146 11.8244 7.42123C11.8171 8.4637 12.6774 9.3385 13.7417 9.36766C13.7636 9.36766 13.7782 9.36766 13.8 9.36766C14.8206 9.36766 15.6954 8.48557 15.7173 7.44309C15.7246 6.94737 15.535 6.45894 15.1705 6.08715C14.806 5.70807 14.2957 5.48208 13.7854 5.47479L13.7563 5.48208Z" fill="#9A9EA6"/>
</svg>
