<svg width="18" height="16" viewBox="0 0 18 16" fill="none" xmlns="http://www.w3.org/2000/svg">
<path d="M8.50844 15.6951C6.62861 15.6951 4.94099 15.6951 3.34712 15.6904C2.29236 15.6904 1.43448 15.2732 0.726616 14.4247C0.351588 13.9747 0.117196 13.4309 0 12.7559V6.23037L0.0468785 6.03348C0.342213 4.72088 1.11102 3.87238 2.38611 3.43641C2.78458 3.30047 3.21117 3.28171 3.57214 3.28171C3.7034 3.28171 3.83466 3.2864 3.95654 3.2864C3.96592 3.2864 3.97061 3.2864 3.97998 3.2864C4.29875 3.2864 4.5144 3.12233 4.59409 2.80824C4.79567 2.05819 5.21757 1.4347 5.85043 0.956542C6.28171 0.628393 6.79738 0.41744 7.42555 0.304932H9.79291C9.80697 0.309619 9.82104 0.314307 9.83979 0.314307C11.3165 0.581515 12.24 1.41126 12.6666 2.85043C12.7463 3.12233 12.9478 3.27703 13.2291 3.28171C13.2807 3.28171 13.3369 3.28171 13.3885 3.28171C13.4401 3.28171 13.4916 3.28171 13.5432 3.28171C13.5948 3.28171 13.6463 3.28171 13.6979 3.28171C13.8807 3.28171 14.0729 3.2864 14.2651 3.30515C15.0855 3.39891 15.8402 3.788 16.3981 4.4068C16.9559 5.02559 17.2606 5.81784 17.2653 6.63821C17.27 8.41959 17.2653 9.29153 17.2653 11.0401C17.2653 11.7902 17.2653 11.6026 17.2653 12.3527C17.2653 12.498 17.256 12.634 17.2372 12.7746C17.0122 14.4341 15.5824 15.6858 13.9135 15.6904C12.1087 15.6951 10.3086 15.6951 8.50844 15.6951ZM9.00066 14.9076C9.40382 14.9076 9.80697 14.9076 10.2101 14.9076C10.7399 14.9076 11.2649 14.9076 11.7946 14.9076C12.6291 14.9076 13.3135 14.9076 13.951 14.9029C15.2777 14.8982 16.4543 13.7403 16.4731 12.4277C16.4825 11.6589 16.4825 11.8183 16.4825 11.0635C16.4825 10.6182 16.4825 10.1588 16.4825 9.70406C16.4825 9.53061 16.4309 9.38998 16.3278 9.28685C16.1731 9.13215 15.9762 9.13215 15.9105 9.13215C14.8511 9.13215 13.787 9.13215 12.7275 9.13215C11.6868 9.13215 10.6414 9.13215 9.60071 9.13215C9.42257 9.13215 9.28194 9.18371 9.1788 9.29153C9.08036 9.39467 9.02879 9.53061 9.02879 9.70406C9.02879 9.76032 9.02879 9.81657 9.03348 9.87751C9.03817 10.0322 9.04286 10.1822 9.01473 10.3135C8.97723 10.501 8.81315 10.6369 8.63032 10.6369C8.4475 10.6369 8.28342 10.501 8.24592 10.3135C8.22248 10.2057 8.22717 10.0791 8.22717 9.94314C8.22717 9.8822 8.22717 9.81657 8.22717 9.75094C8.21779 9.30091 8.04903 9.13683 7.60369 9.13683H4.50033H1.39698C0.942257 9.13683 0.773495 9.3056 0.773495 9.75563C0.773495 10.9182 0.773495 11.1385 0.773495 12.3011C0.773495 12.4089 0.773495 12.5215 0.796934 12.6433C1.02195 14.0169 2.06734 14.9076 3.45963 14.9076C4.15812 14.9076 4.85192 14.9076 5.55041 14.9076H9.00066ZM3.59558 4.06927C3.41744 4.06927 3.24868 4.07865 3.07991 4.0974C1.77201 4.24272 0.778182 5.34905 0.768807 6.66165C0.764119 7.15856 0.768807 6.72259 0.768807 7.21013V7.73048C0.768807 8.1852 0.942257 8.35396 1.40167 8.35396H15.8637C16.3043 8.35396 16.4731 8.18051 16.4731 7.73986C16.4731 7.4914 16.4731 7.24763 16.4731 6.99918C16.4731 6.57727 16.4731 7.09762 16.4731 6.67571C16.4731 6.43663 16.4403 6.19755 16.3653 5.9491C16.0418 4.82402 15.0058 4.06927 13.7823 4.06927C12.179 4.06927 10.5711 4.06927 8.96785 4.06927H3.59558V4.06927ZM9.98042 3.28171C10.407 3.28171 10.8336 3.28171 11.2602 3.28171C11.3727 3.28171 11.6118 3.28171 11.7431 3.07076C11.8696 2.85981 11.7665 2.64885 11.7102 2.55041C11.2368 1.63159 10.4492 1.12062 9.43195 1.08311C9.16474 1.07374 8.89284 1.06905 8.62564 1.06905C8.35843 1.06905 8.08653 1.07374 7.82401 1.08311C6.80206 1.1253 6.01451 1.63159 5.54572 2.55041C5.49416 2.65354 5.38634 2.85981 5.51291 3.07076C5.63948 3.28171 5.87856 3.28171 5.99576 3.28171C6.42235 3.28171 6.84894 3.28171 7.27554 3.28171H8.63032H9.98042Z" fill="#9A9EA6"/>
</svg>
