<svg width="25" height="24" viewBox="0 0 25 24" fill="none" xmlns="http://www.w3.org/2000/svg">
<path d="M1.68897 16.6862C1.68164 16.373 1.74027 16.0671 1.78424 15.7612C1.87218 15.164 1.74027 14.625 1.34454 14.1589C1.0221 13.7875 0.648358 13.4597 0.399198 13.03C-0.245688 11.9085 -0.0991227 10.43 0.76561 9.46861C0.838893 9.3885 0.912175 9.3011 0.992786 9.22827C1.71828 8.60192 1.91614 7.82263 1.75492 6.8904C1.43981 5.08419 2.56103 3.55474 4.37844 3.23428C4.53966 3.20515 4.70088 3.17602 4.8621 3.1396C5.49966 3.0085 5.96134 2.65892 6.25447 2.09083C6.53294 1.55189 6.82607 1.0275 7.33172 0.663347C8.33569 -0.0722457 9.42027 -0.196058 10.5708 0.291909C10.9592 0.45942 11.311 0.685196 11.7433 0.743461C12.0877 0.78716 12.4175 0.743461 12.7326 0.612365C13.0111 0.495836 13.2749 0.357457 13.5607 0.240927C14.9677 -0.334437 16.5506 0.168097 17.3714 1.43536C17.496 1.632 17.6132 1.84321 17.7232 2.05442C18.0603 2.71718 18.6026 3.08862 19.3354 3.1833C20.5739 3.35081 21.5192 3.91889 22.0542 5.08419C22.3693 5.77608 22.34 6.49711 22.2154 7.22542C22.1128 7.8372 22.2594 8.38343 22.6624 8.84955C22.8236 9.03891 22.9995 9.2137 23.1681 9.3885C24.2893 10.6048 24.2819 12.4183 23.1534 13.6273C23.1021 13.6782 23.0581 13.7365 22.9995 13.7875C22.274 14.4138 22.0835 15.1931 22.252 16.1254C22.5671 17.8806 21.4606 19.4173 19.6945 19.7596C19.5039 19.796 19.3134 19.8252 19.1302 19.8616C18.5073 19.9854 18.0529 20.3423 17.7598 20.8958C17.4887 21.4056 17.2175 21.9154 16.7485 22.2796C15.7665 23.0443 14.6819 23.2045 13.5241 22.7457C13.3629 22.6801 13.209 22.6 13.0551 22.5199C12.3662 22.1485 11.6774 22.1485 10.9812 22.5126C10.4535 22.7894 9.90393 23.0006 9.28103 22.9933C8.0792 22.9715 7.17782 22.4471 6.55492 21.4347C6.50363 21.3473 6.45233 21.2599 6.40836 21.1726C6.03462 20.2986 5.34576 19.8907 4.41508 19.7596C3.00072 19.5703 2.00408 18.5871 1.74027 17.196C1.70363 17.0285 1.70363 16.8537 1.68897 16.6862ZM2.88347 16.5332C2.87614 17.6111 3.49172 18.3758 4.4224 18.5798C4.53966 18.6016 4.65691 18.6307 4.77416 18.6453C5.98332 18.8128 6.85538 19.4392 7.39034 20.5316C7.4563 20.67 7.52958 20.8084 7.61752 20.9395C7.99126 21.5003 8.51889 21.7916 9.20042 21.828C9.7134 21.8499 10.1384 21.6241 10.5708 21.4129C11.5161 20.9541 12.4542 20.9541 13.3995 21.4129C13.5387 21.4784 13.678 21.5513 13.8172 21.6168C14.8725 22.0975 15.9351 21.7479 16.4847 20.7356C16.5946 20.5244 16.7045 20.3131 16.8291 20.1165C17.2615 19.4319 17.8771 18.9803 18.6612 18.7691C18.8957 18.7036 19.1448 18.6672 19.3867 18.6162C20.6325 18.3686 21.2481 17.48 21.0502 16.2273C20.9842 15.8049 20.9329 15.3825 21.0062 14.9528C21.1161 14.2682 21.4386 13.6855 21.9223 13.1903C22.0102 13.0956 22.1055 13.0082 22.1934 12.9135C22.9995 12.076 23.0068 10.9616 22.2007 10.1241C21.9076 9.8182 21.6071 9.52688 21.3946 9.16272C20.9403 8.398 20.911 7.58229 21.0575 6.73017C21.2627 5.594 20.5885 4.63992 19.4526 4.42143C19.2621 4.38501 19.0716 4.34859 18.8884 4.31218C18.1262 4.15923 17.4887 3.7878 17.005 3.16873C16.7778 2.87741 16.6239 2.54967 16.4481 2.22921C16.0523 1.53732 15.4587 1.18773 14.6453 1.18773C14.1763 1.18773 13.7879 1.42079 13.3848 1.61015C12.4395 2.0617 11.4942 2.0617 10.5561 1.60287C10.351 1.5009 10.1458 1.39894 9.93324 1.31883C8.99523 0.97652 8.02057 1.33339 7.52958 2.20008C7.44164 2.36031 7.36103 2.52054 7.27309 2.68076C6.8847 3.39451 6.32042 3.88976 5.55828 4.1738C5.23584 4.29033 4.89874 4.33403 4.56897 4.39958C3.35248 4.6472 2.71492 5.55031 2.92744 6.77387C3.08866 7.69882 3.00072 8.57279 2.45111 9.35937C2.25324 9.64341 1.99676 9.88375 1.76225 10.1314C0.992786 10.9398 0.992786 12.0541 1.75492 12.8553C1.86485 12.9645 1.97477 13.0737 2.07737 13.1903C2.75156 13.8822 3.07401 14.7052 3.00072 15.6738C2.96408 16.0016 2.91279 16.322 2.88347 16.5332Z" fill="#9A9EA6"/>
<path d="M16.668 7.4439C16.6606 7.58227 16.6167 7.71337 16.5141 7.8299C16.4408 7.9173 16.3528 8.00469 16.2722 8.09209C13.7 10.6485 11.1351 13.1975 8.56292 15.7539C8.46766 15.8486 8.36506 15.9506 8.25514 16.0307C8.00598 16.2055 7.71285 16.1836 7.50033 15.9797C7.28048 15.7685 7.2585 15.4699 7.4417 15.2077C7.50766 15.1203 7.58094 15.0402 7.66155 14.9601C10.2631 12.3746 12.8646 9.78905 15.4661 7.20355C15.5834 7.08702 15.6933 6.97049 15.8545 6.90495C16.2356 6.75929 16.6533 7.03604 16.668 7.4439Z" fill="#9A9EA6"/>
<path d="M7.29496 7.62597C7.30229 6.2786 8.36488 5.2444 9.74259 5.25169C11.0763 5.25897 12.1316 6.3223 12.1243 7.66239C12.1169 8.9952 11.0324 10.0512 9.67664 10.044C8.3429 10.0367 7.28763 8.95878 7.29496 7.62597ZM8.48214 7.64054C8.48214 8.33243 9.0171 8.87138 9.71328 8.8641C10.3875 8.8641 10.9371 8.31787 10.9371 7.64782C10.9371 6.96321 10.4095 6.43155 9.72794 6.42426C9.02443 6.42426 8.48946 6.94136 8.48214 7.64054Z" fill="#9A9EA6"/>
<path d="M16.697 15.3606C16.7044 16.6934 15.6418 17.7495 14.2934 17.7495C12.9523 17.7568 11.875 16.6934 11.8677 15.3752C11.8604 14.0278 12.9303 12.9572 14.2714 12.9499C15.6271 12.9572 16.6897 14.0133 16.697 15.3606ZM15.5025 15.3461C15.5025 14.6615 14.9676 14.1371 14.2787 14.1371C13.5899 14.1371 13.0476 14.6833 13.0476 15.3679C13.0549 16.0452 13.5899 16.5696 14.2714 16.5696C14.9822 16.5769 15.5099 16.0452 15.5025 15.3461Z" fill="#9A9EA6"/>
</svg>
