<svg width="21" height="24" viewBox="0 0 21 24" fill="none" xmlns="http://www.w3.org/2000/svg">
<path d="M10.7634 24C9.91907 23.8113 9.23351 23.3904 8.78608 22.6283C8.25206 21.7138 8.2232 20.7703 8.72835 19.8485C9.24794 18.905 10.0634 18.397 11.1459 18.3752C12.4521 18.3534 13.5201 19.1445 13.9026 20.4001C13.9531 20.5671 14.0253 20.6251 14.1985 20.6106C15.4758 20.509 16.5366 19.9792 17.3737 18.9994C17.417 18.9486 17.4675 18.905 17.482 18.7889C17.3448 18.7889 17.2077 18.7889 17.0706 18.7889C16.6304 18.7816 16.4139 18.5639 16.4139 18.1284C16.4139 15.8422 16.4139 13.5488 16.4139 11.2625C16.4139 10.6892 16.6232 10.4787 17.1933 10.4787C17.5325 10.4787 17.5325 10.4787 17.5325 10.1303C17.5325 9.28117 17.5541 8.432 17.3665 7.58284C16.7603 4.87567 14.5521 2.74914 11.8387 2.27738C8.14382 1.65321 4.66546 4.01925 3.87887 7.71348C3.69124 8.57716 3.72732 9.45535 3.72732 10.3263C3.72732 10.4424 3.78505 10.486 3.8933 10.486C4.00155 10.486 4.11701 10.486 4.22526 10.486C4.55 10.4932 4.75206 10.6529 4.83144 10.9722C4.86031 11.1029 4.87474 11.2408 4.87474 11.3714C4.87474 13.5996 4.87474 15.8277 4.87474 18.0559C4.87474 18.5784 4.65825 18.8034 4.14588 18.7962C3.42423 18.7889 2.70258 18.8542 1.98093 18.7599C0.855155 18.6292 0.0252577 17.693 0.0108247 16.5462C-0.00360825 15.3269 -0.00360825 14.1076 0.0108247 12.8883C0.0252577 11.8069 0.681959 10.8924 1.62732 10.5876C1.85825 10.515 2.08918 10.4787 2.32732 10.486C2.4933 10.4932 2.54381 10.4206 2.55103 10.261C2.55825 9.6876 2.5366 9.11424 2.5799 8.53361C2.70258 6.93689 3.22217 5.49985 4.18918 4.22973C5.59639 2.37899 7.46546 1.31209 9.76753 1.04355C13.917 0.564535 17.7778 3.42411 18.5717 7.54655C18.7376 8.41023 18.7304 9.28842 18.716 10.1594C18.7088 10.3916 18.7737 10.486 19.0119 10.515C19.5964 10.5803 20.0222 10.9287 20.3613 11.3859C20.7799 11.9375 20.982 12.5762 20.982 13.2657C20.9892 14.3907 20.982 15.5084 20.982 16.6333C20.982 17.7655 20.3325 18.5349 19.2139 18.6945C19.0263 18.7236 18.918 18.8034 18.8314 18.9486C18.3191 19.7832 17.6696 20.48 16.818 20.9808C16.0026 21.4598 15.1222 21.7283 14.1696 21.7646C14.0541 21.7719 13.9603 21.7646 13.9242 21.917C13.6284 23.0492 12.8562 23.6952 11.7521 23.9637C11.716 23.971 11.6799 23.9855 11.6438 24C11.3624 24 11.0593 24 10.7634 24ZM3.69845 14.6665C3.69845 13.7447 3.69845 12.8302 3.69845 11.9085C3.69845 11.7343 3.65515 11.669 3.47474 11.6762C3.08505 11.6908 2.70258 11.6762 2.31289 11.6835C1.84381 11.6908 1.51186 11.923 1.31701 12.3512C1.2232 12.5472 1.18711 12.7649 1.18711 12.9827C1.18711 14.1439 1.18711 15.2979 1.18711 16.4591C1.18711 17.1486 1.64897 17.6131 2.33454 17.6204C2.70979 17.6276 3.07784 17.6131 3.45309 17.6276C3.65515 17.6349 3.70567 17.5623 3.70567 17.3664C3.69124 16.4591 3.69845 15.5664 3.69845 14.6665ZM17.5974 14.6447C17.5974 14.71 17.5974 14.7826 17.5974 14.8479C17.5974 15.6898 17.5974 16.539 17.5974 17.3809C17.5974 17.497 17.583 17.6131 17.7562 17.6131C18.1098 17.6059 18.4706 17.6349 18.8242 17.6059C19.5531 17.5478 19.8057 17.2575 19.8057 16.5317C19.8057 15.4503 19.8057 14.3616 19.8057 13.2802C19.8057 12.852 19.683 12.4528 19.4376 12.1045C19.2356 11.8214 18.9686 11.6762 18.6222 11.6835C18.384 11.6835 18.1459 11.6835 17.9077 11.6835C17.5974 11.6835 17.5974 11.6835 17.5974 11.9883C17.5974 12.8665 17.5974 13.7592 17.5974 14.6447ZM11.2325 22.8315C12.1201 22.8315 12.8418 22.1275 12.849 21.2638C12.8562 20.2985 12.1273 19.5292 11.2108 19.5292C10.316 19.5292 9.57268 20.2695 9.57268 21.1622C9.57268 22.0767 10.3232 22.8242 11.2325 22.8315Z" fill="#9A9EA6"/>
</svg>
